<svg width="22" height="23" viewBox="0 0 22 23" fill="none" xmlns="http://www.w3.org/2000/svg">
<g clip-path="url(#clip0_559_72)">
<path d="M20.4286 0H1.57143C0.703553 0 0 0.715101 0 1.59722V21.4028C0 22.2849 0.703553 23 1.57143 23H20.4286C21.2964 23 22 22.2849 22 21.4028V1.59722C22 0.715101 21.2964 0 20.4286 0Z" fill="black"/>
<path d="M12.5919 9.64073C12.3783 9.68562 12.1827 9.67555 12.0106 9.6105C11.7979 9.52988 11.5806 9.49415 11.3643 9.50423C11.3129 9.50698 11.267 9.53904 11.2462 9.58668L11.0155 10.1254C10.974 10.2225 10.9839 10.3333 11.0407 10.4213C11.0975 10.5092 11.194 10.5624 11.2967 10.5624H12.6343C12.738 10.5624 12.8335 10.5101 12.8903 10.4213C12.9471 10.3333 12.957 10.2225 12.9155 10.1254L12.7425 9.72044C12.7172 9.66089 12.6541 9.62699 12.591 9.64073H12.5919ZM12.6658 10.271C12.6613 10.2784 12.6514 10.2875 12.6352 10.2875H11.2976C11.2814 10.2875 11.2724 10.2784 11.267 10.271C11.2625 10.2646 11.257 10.2518 11.2643 10.2353L11.4599 9.77815C11.6122 9.7809 11.7654 9.81113 11.9159 9.86885C12.1061 9.94123 12.3143 9.96138 12.537 9.92932L12.6677 10.2353C12.6749 10.2518 12.6686 10.2646 12.6649 10.271H12.6658Z" fill="white"/>
<path d="M14.9399 3.69405C14.8994 3.66565 14.848 3.66199 14.8038 3.68398C13.7412 4.21442 12.9993 5.16537 12.4946 6.10258V3.07291C12.4946 2.74127 12.2296 2.47193 11.9033 2.47193H10.1511C10.1448 2.47193 10.1394 2.47009 10.1331 2.47009H8.80089C8.79458 2.47009 8.78917 2.47101 8.78286 2.47193H7.99238C7.44527 2.47193 7 2.9245 7 3.48059V9.34938C7 9.76256 7.3308 10.0997 7.7382 10.0997H10.4026C10.3278 10.3223 10.3566 10.566 10.4846 10.7648C10.6243 10.981 10.8596 11.1102 11.1137 11.1102H12.8209C13.0751 11.1102 13.3103 10.981 13.45 10.7648C13.5897 10.5486 13.6123 10.2774 13.5113 10.0401L12.9336 8.68793C13.0282 8.61555 13.085 8.52577 13.085 8.41767C13.085 8.3627 13.0679 8.29399 13.0111 8.22436C13.3959 8.02647 13.7114 7.76996 13.7249 7.75896C13.7547 7.73514 13.7727 7.6985 13.7754 7.66002C13.7781 7.62154 13.7637 7.58398 13.7375 7.55558L13.5843 7.39525L13.761 7.44564C13.8024 7.45755 13.8484 7.44839 13.8827 7.42091C14.3487 7.04163 14.5767 6.22993 14.5866 6.19603C14.5992 6.14931 14.5866 6.09892 14.5542 6.06319L14.2901 5.78468H14.6371C14.6975 5.78468 14.7498 5.74437 14.7669 5.68574C14.8741 5.30829 14.994 3.88003 14.9994 3.81865C15.0039 3.76918 14.9814 3.72154 14.9408 3.69405H14.9399ZM8.93609 2.74493H9.99787V4.57355L9.56793 4.07883C9.54269 4.04952 9.50574 4.03211 9.46698 4.03211C9.42822 4.03211 9.39127 4.04952 9.36603 4.07883L8.93609 4.57355V2.74493ZM8.29704 2.74677H8.66569V4.93634C8.66569 4.99314 8.70084 5.04444 8.75312 5.0646C8.80539 5.08475 8.86488 5.07009 8.90274 5.02704L9.46788 4.37658L10.033 5.02704C10.0592 5.05727 10.0961 5.07376 10.1349 5.07376C10.1511 5.07376 10.1673 5.07101 10.1826 5.0646C10.2349 5.04444 10.2701 4.99314 10.2701 4.93634V2.74677H11.9051C12.0818 2.74677 12.226 2.89335 12.226 3.07291V6.64769C12.0133 7.11583 11.8573 7.55833 11.7483 7.91562C11.7474 7.91837 11.7465 7.92112 11.7456 7.92478C11.2859 7.96234 10.8514 8.12359 10.8514 8.41767C10.8514 8.48271 10.874 8.54409 10.9154 8.59906H8.29613V2.74677H8.29704ZM11.6627 8.2097C11.6257 8.34437 11.5914 8.47813 11.5608 8.61097C11.2408 8.55325 11.1246 8.44698 11.1209 8.41858C11.1264 8.37277 11.3012 8.25643 11.6627 8.21062V8.2097ZM7.27041 3.48151C7.27041 3.07658 7.59399 2.74768 7.99238 2.74768H8.02663V8.59998H7.7382C7.56064 8.59998 7.3984 8.66411 7.27041 8.77038V3.48151ZM10.5152 9.82486H7.7373C7.47952 9.82486 7.2695 9.61139 7.2695 9.34938C7.2695 9.08736 7.47952 8.8739 7.7373 8.8739H10.9218L10.5152 9.82486ZM13.2625 10.1501C13.3283 10.304 13.3139 10.4735 13.2238 10.6146C13.1327 10.7557 12.9858 10.8363 12.8209 10.8363H11.1137C10.9479 10.8363 10.801 10.7557 10.7108 10.6146C10.6198 10.4735 10.6063 10.3049 10.6721 10.1501L11.2435 8.81252C11.3571 8.85283 11.4932 8.88306 11.6491 8.9023C11.7555 8.91421 11.8628 8.92063 11.9673 8.92063C11.9754 8.92063 11.9844 8.92063 11.9925 8.92063C11.998 8.92063 12.0034 8.92063 12.0088 8.92063C12.0115 8.92063 12.0151 8.92063 12.0178 8.91971C12.2557 8.91513 12.4982 8.88032 12.6911 8.81161L13.2634 10.1501H13.2625ZM12.3594 8.6128L12.5559 8.40759C12.6136 8.39201 12.6749 8.37094 12.738 8.34712C12.7983 8.38377 12.8137 8.41309 12.8137 8.41767C12.8083 8.46531 12.6469 8.5615 12.3594 8.6128ZM14.5289 5.51076H13.971C13.9169 5.51076 13.8682 5.54374 13.8466 5.59413C13.825 5.64451 13.8358 5.70315 13.8737 5.74346L14.3018 6.19603C14.2405 6.38384 14.0575 6.88497 13.7628 7.16256L13.1715 6.99307C13.1129 6.97658 13.0498 7.00132 13.0183 7.05445C12.9867 7.10759 12.9948 7.1763 13.0372 7.22027L13.4338 7.6362C13.3049 7.73056 13.0859 7.88081 12.8461 7.99991C12.7019 8.07137 12.5694 8.12175 12.4522 8.15107C12.427 8.15748 12.4045 8.17031 12.3864 8.18863L11.9484 8.64578C11.9078 8.64578 11.8682 8.64304 11.8276 8.6412C11.8772 8.42958 11.9358 8.21428 12.0016 7.99899C12.3369 6.89871 13.1246 4.96749 14.7038 4.04952C14.6677 4.43887 14.5947 5.17545 14.5271 5.51167L14.5289 5.51076Z" fill="white"/>
<path d="M3.25522 20.4538C3.14566 20.465 3.10184 20.0752 3.18948 20.053C3.82493 19.8859 4.31794 19.7857 4.31794 18.9617V14.0174C4.31794 13.3047 3.86875 13.1154 3.39765 12.9929C3.31 12.9706 3.36478 12.6031 3.45243 12.6143C3.90162 12.67 4.36177 12.6811 4.82192 12.6811C5.67648 12.6811 6.44339 12.6143 7.00214 12.6143C9.65348 12.6143 11.0887 14.2178 11.0887 16.367C11.0887 18.5051 9.65348 20.4538 6.99119 20.4538C6.4653 20.4538 5.78604 20.387 4.9753 20.387C4.29603 20.387 3.75919 20.3982 3.25522 20.4538ZM7.10075 19.8637C8.88656 19.8637 9.77399 18.8837 9.77399 17.0018C9.77399 14.8748 8.63458 13.2045 6.66251 13.2045C5.88464 13.2045 5.63265 13.4495 5.63265 14.0174V18.9617C5.63265 19.563 6.03802 19.8637 7.10075 19.8637ZM16.5667 20.6097C14.7261 20.6097 12.2391 19.5184 12.2391 16.6788C12.2391 14.7523 13.4004 12.4584 16.4681 12.4584C17.7389 12.4584 18.8345 12.8593 18.7031 13.249L18.5606 13.6833C18.1662 14.8748 17.7389 13.3492 15.7888 13.3492C14.2221 13.3492 13.4552 14.3849 13.4552 15.9884C13.4552 18.494 15.3286 19.5407 16.8296 19.5407C17.0268 19.5407 18.0238 19.3848 18.5935 19.0173C18.6812 18.9617 18.9112 19.2178 18.8455 19.318C18.3744 20.0196 16.9063 20.6097 16.5667 20.6097Z" fill="white"/>
</g>
<defs>
<clipPath id="clip0_559_72">
<rect width="22" height="23" fill="white"/>
</clipPath>
</defs>
</svg>
