<svg width="22" height="22" viewBox="0 0 22 22" fill="none" xmlns="http://www.w3.org/2000/svg">
<rect width="22" height="22" rx="3" fill="black"/>
<path d="M4.63672 6.67969C4.91016 6.71094 5.14062 6.73438 5.32812 6.75C5.51562 6.75781 5.66406 6.76562 5.77344 6.77344C5.90625 6.78125 6.01172 6.78516 6.08984 6.78516C6.22266 6.78516 6.375 6.78125 6.54688 6.77344C6.69531 6.76562 6.86719 6.75391 7.0625 6.73828C7.26562 6.71484 7.48438 6.67969 7.71875 6.63281C7.60938 6.75 7.51953 6.86328 7.44922 6.97266C7.37891 7.07422 7.32422 7.16797 7.28516 7.25391C7.23828 7.34766 7.19922 7.43359 7.16797 7.51172C7.13672 7.61328 7.10156 7.76953 7.0625 7.98047C7.02344 8.16016 6.98047 8.41406 6.93359 8.74219C6.89453 9.07031 6.84375 9.5 6.78125 10.0312C7.04688 10.0391 7.27734 10.043 7.47266 10.043C7.66797 10.0352 7.83203 10.0312 7.96484 10.0312H8.35156C8.46094 10.0234 8.58594 10.0156 8.72656 10.0078C8.96094 10 9.31641 9.97656 9.79297 9.9375C9.83203 9.57812 9.85156 9.26953 9.85156 9.01172C9.85938 8.74609 9.85547 8.52344 9.83984 8.34375C9.82422 8.14062 9.80078 7.96875 9.76953 7.82812C9.74609 7.75 9.71094 7.65625 9.66406 7.54688C9.625 7.45312 9.57031 7.33984 9.5 7.20703C9.4375 7.06641 9.35156 6.89844 9.24219 6.70312C9.44531 6.73438 9.625 6.75781 9.78125 6.77344C9.94531 6.78125 10.082 6.78906 10.1914 6.79688C10.3164 6.80469 10.4219 6.80859 10.5078 6.80859C10.5938 6.80859 10.707 6.80469 10.8477 6.79688C10.9648 6.78906 11.1094 6.78516 11.2812 6.78516C11.4531 6.77734 11.6641 6.76562 11.9141 6.75C11.8516 6.85938 11.7969 6.97266 11.75 7.08984C11.7031 7.20703 11.6641 7.3125 11.6328 7.40625C11.6016 7.51562 11.5703 7.625 11.5391 7.73438C11.5 7.89844 11.4648 8.13672 11.4336 8.44922C11.4102 8.76172 11.3867 9.10938 11.3633 9.49219C11.3477 9.875 11.332 10.2734 11.3164 10.6875C11.3086 11.1016 11.3008 11.4922 11.293 11.8594C11.293 12.2266 11.2969 12.5547 11.3047 12.8438C11.3125 13.125 11.3281 13.3242 11.3516 13.4414C11.375 13.582 11.4141 13.7266 11.4688 13.875C11.5156 14.0078 11.5781 14.1523 11.6562 14.3086C11.7344 14.457 11.8359 14.5977 11.9609 14.7305L9.13672 14.9414C9.25391 14.832 9.34766 14.7266 9.41797 14.625C9.48828 14.5156 9.54297 14.4219 9.58203 14.3438C9.62109 14.2578 9.64844 14.1758 9.66406 14.0977C9.67188 14.0039 9.68359 13.8398 9.69922 13.6055C9.71484 13.4102 9.73047 13.1328 9.74609 12.7734C9.76172 12.4141 9.77734 11.9375 9.79297 11.3438C9.68359 11.3438 9.55078 11.3477 9.39453 11.3555C9.24609 11.3555 9.10547 11.3594 8.97266 11.3672C8.81641 11.375 8.65234 11.3789 8.48047 11.3789C8.30859 11.3867 8.12891 11.3945 7.94141 11.4023C7.78516 11.418 7.60938 11.4336 7.41406 11.4492C7.22656 11.457 7.03906 11.4688 6.85156 11.4844C6.83594 11.8125 6.83594 12.1016 6.85156 12.3516C6.86719 12.5938 6.89062 12.8008 6.92188 12.9727C6.95312 13.1758 6.99219 13.3516 7.03906 13.5C7.08594 13.6406 7.13672 13.7812 7.19141 13.9219C7.23828 14.0469 7.29297 14.1797 7.35547 14.3203C7.42578 14.4609 7.49609 14.5859 7.56641 14.6953C7.41797 14.6797 7.28125 14.668 7.15625 14.6602C7.03125 14.6445 6.92188 14.6289 6.82812 14.6133C6.71875 14.6055 6.61328 14.5977 6.51172 14.5898C6.41016 14.5898 6.28906 14.5859 6.14844 14.5781C6.02344 14.5703 5.86719 14.5664 5.67969 14.5664C5.49219 14.5586 5.27344 14.5547 5.02344 14.5547C5.17188 14.4062 5.28906 14.2617 5.375 14.1211C5.46875 13.9727 5.53516 13.8398 5.57422 13.7227C5.62109 13.582 5.65234 13.4531 5.66797 13.3359C5.67578 13.2344 5.67969 13.043 5.67969 12.7617C5.6875 12.4805 5.6875 12.1602 5.67969 11.8008C5.67969 11.4336 5.67578 11.0508 5.66797 10.6523C5.66016 10.2461 5.64844 9.86719 5.63281 9.51562C5.625 9.16406 5.61328 8.86328 5.59766 8.61328C5.58984 8.35547 5.58203 8.19531 5.57422 8.13281C5.53516 7.99219 5.47656 7.83984 5.39844 7.67578C5.32812 7.54297 5.23438 7.39062 5.11719 7.21875C5 7.03906 4.83984 6.85938 4.63672 6.67969Z" fill="white"/>
<path d="M14.752 9.772C15.296 9.772 15.612 10.164 15.7 10.948C15.7 11.596 15.548 12.004 15.244 12.172H15.172C14.94 12.156 14.824 12.072 14.824 11.92L14.872 11.02V10.576L14.8 10.492H14.68C14.424 10.492 14.124 11.204 13.78 12.628L13.708 13.528V13.792C13.708 14.624 14.08 15.112 14.824 15.256H15.328C16.16 15.256 17.168 14.72 18.352 13.648H18.4C18.616 13.648 18.74 13.784 18.772 14.056C18.588 14.536 18.372 14.776 18.124 14.776C16.98 15.592 15.952 16 15.04 16C14.128 16 13.484 15.5 13.108 14.5L13 13.648V13.492C13 12.252 13.348 11.112 14.044 10.072C14.268 9.872 14.504 9.772 14.752 9.772Z" fill="white"/>
</svg>
