<svg width="22" height="22" viewBox="0 0 22 22" fill="none" xmlns="http://www.w3.org/2000/svg">
<rect width="22" height="22" rx="3" fill="#D9D9D9"/>
<path d="M4.75391 6.64453C5.02734 6.68359 5.26562 6.71484 5.46875 6.73828C5.67188 6.76172 5.83984 6.78125 5.97266 6.79688C6.12891 6.8125 6.26172 6.82422 6.37109 6.83203C6.49609 6.84766 6.64844 6.83984 6.82812 6.80859C7.01562 6.77734 7.21484 6.74609 7.42578 6.71484C7.63672 6.67578 7.85547 6.64453 8.08203 6.62109C8.30859 6.59766 8.52734 6.59766 8.73828 6.62109C8.87891 6.63672 9.05859 6.66797 9.27734 6.71484C9.49609 6.76172 9.72656 6.83594 9.96875 6.9375C10.2188 7.03906 10.4688 7.17188 10.7188 7.33594C10.9688 7.5 11.1953 7.70703 11.3984 7.95703C11.6016 8.20703 11.7695 8.50391 11.9023 8.84766C12.0352 9.19141 12.1094 9.59375 12.125 10.0547C12.1484 10.7422 12.0859 11.3672 11.9375 11.9297C11.7891 12.4922 11.5586 12.9727 11.2461 13.3711C10.9414 13.7695 10.5547 14.082 10.0859 14.3086C9.61719 14.5352 9.07031 14.6602 8.44531 14.6836C7.96875 14.7227 7.5 14.7578 7.03906 14.7891C6.84375 14.8047 6.63672 14.8164 6.41797 14.8242C6.20703 14.832 5.99609 14.8398 5.78516 14.8477C5.57422 14.8477 5.37109 14.8438 5.17578 14.8359C4.98047 14.8281 4.80078 14.8164 4.63672 14.8008C4.81641 14.7148 4.96094 14.6289 5.07031 14.543C5.1875 14.457 5.27734 14.3828 5.33984 14.3203C5.41016 14.2422 5.46094 14.1719 5.49219 14.1094C5.50781 14.0234 5.53125 13.8555 5.5625 13.6055C5.58594 13.3945 5.61719 13.0938 5.65625 12.7031C5.69531 12.3125 5.74219 11.7812 5.79688 11.1094L5.86719 10.2773C5.90625 9.76172 5.92188 9.33984 5.91406 9.01172C5.91406 8.68359 5.90625 8.42578 5.89062 8.23828C5.86719 8.01953 5.83594 7.85938 5.79688 7.75781C5.76562 7.67188 5.70703 7.57031 5.62109 7.45312C5.54297 7.35938 5.43359 7.24609 5.29297 7.11328C5.16016 6.97266 4.98047 6.81641 4.75391 6.64453ZM7.22656 10.957C7.24219 11.6523 7.27734 12.1875 7.33203 12.5625C7.39453 12.9297 7.46094 13.2031 7.53125 13.3828C7.61719 13.5859 7.71094 13.707 7.8125 13.7461C7.96094 13.7461 8.12891 13.6836 8.31641 13.5586C8.50391 13.4258 8.6875 13.2266 8.86719 12.9609C9.05469 12.6953 9.22266 12.3633 9.37109 11.9648C9.52734 11.5664 9.64062 11.1016 9.71094 10.5703C9.78125 10.0391 9.76172 9.57031 9.65234 9.16406C9.54297 8.75781 9.39844 8.41797 9.21875 8.14453C9.03906 7.86328 8.85547 7.65234 8.66797 7.51172C8.48047 7.36328 8.33984 7.28906 8.24609 7.28906C8.13672 7.28906 8.03906 7.32031 7.95312 7.38281C7.86719 7.4375 7.74609 7.56641 7.58984 7.76953C7.51172 7.87891 7.44141 8.03516 7.37891 8.23828C7.32422 8.41797 7.27734 8.65625 7.23828 8.95312C7.19922 9.25 7.1875 9.63281 7.20312 10.1016L7.22656 10.957Z" fill="black"/>
<path d="M14.752 9.772C15.296 9.772 15.612 10.164 15.7 10.948C15.7 11.596 15.548 12.004 15.244 12.172H15.172C14.94 12.156 14.824 12.072 14.824 11.92L14.872 11.02V10.576L14.8 10.492H14.68C14.424 10.492 14.124 11.204 13.78 12.628L13.708 13.528V13.792C13.708 14.624 14.08 15.112 14.824 15.256H15.328C16.16 15.256 17.168 14.72 18.352 13.648H18.4C18.616 13.648 18.74 13.784 18.772 14.056C18.588 14.536 18.372 14.776 18.124 14.776C16.98 15.592 15.952 16 15.04 16C14.128 16 13.484 15.5 13.108 14.5L13 13.648V13.492C13 12.252 13.348 11.112 14.044 10.072C14.268 9.872 14.504 9.772 14.752 9.772Z" fill="black"/>
</svg>
