<svg width="4" height="4" viewBox="0 0 4 4" fill="none" xmlns="http://www.w3.org/2000/svg">
<path d="M0.121778 3.98624H3.87733C3.9068 3.98624 3.93506 3.97453 3.9559 3.9537C3.97674 3.93286 3.98844 3.9046 3.98844 3.87513C3.98844 3.84566 3.97674 3.8174 3.9559 3.79656C3.93506 3.77572 3.9068 3.76402 3.87733 3.76402H0.121778C0.0923095 3.76402 0.0640479 3.77572 0.0432105 3.79656C0.0223731 3.8174 0.0106668 3.84566 0.0106668 3.87513C0.0106668 3.9046 0.0223731 3.93286 0.0432105 3.9537C0.0640479 3.97453 0.0923095 3.98624 0.121778 3.98624ZM1.49111 3.15113C1.58498 3.12486 1.67062 3.07515 1.74 3.00669L3.86 0.886685C3.9326 0.813799 3.97336 0.715115 3.97336 0.61224C3.97336 0.509366 3.9326 0.410682 3.86 0.337796L3.65111 0.131129C3.57719 0.0605193 3.47889 0.0211182 3.37667 0.0211182C3.27444 0.0211182 3.17615 0.0605193 3.10222 0.131129L0.982222 2.24891C0.913631 2.31783 0.864554 2.40371 0.84 2.4978L0.675556 3.11113C0.667754 3.13915 0.667553 3.16873 0.674973 3.19685C0.682394 3.22497 0.697168 3.25061 0.717778 3.27113C0.749232 3.30205 0.79145 3.31958 0.835556 3.32002L1.49111 3.15113ZM1.58222 2.84891C1.54126 2.89062 1.48983 2.92055 1.43333 2.93557L1.21778 2.99335L0.995556 2.77113L1.05333 2.55557C1.06888 2.49929 1.09874 2.448 1.14 2.40668L1.22444 2.32446L1.66667 2.76668L1.58222 2.84891ZM1.82444 2.60891L1.38222 2.16668L2.87778 0.671129L3.32 1.11335L1.82444 2.60891ZM3.70222 0.731129L3.47778 0.955574L3.03556 0.513352L3.26 0.286685C3.27544 0.271177 3.2938 0.258873 3.31401 0.250476C3.33422 0.24208 3.35589 0.237758 3.37778 0.237758C3.39966 0.237758 3.42133 0.24208 3.44155 0.250476C3.46176 0.258873 3.48011 0.271177 3.49556 0.286685L3.70222 0.495574C3.73322 0.526938 3.7506 0.569256 3.7506 0.613352C3.7506 0.657447 3.73322 0.699765 3.70222 0.731129Z" fill="#5B9ED9"/>
</svg>
