<svg width="4" height="4" viewBox="0 0 4 4" fill="none" xmlns="http://www.w3.org/2000/svg">
<path d="M1.6 0.682927H2.4C2.4 0.579428 2.35786 0.480168 2.28284 0.406983C2.20783 0.333798 2.10609 0.292683 2 0.292683C1.89391 0.292683 1.79217 0.333798 1.71716 0.406983C1.64214 0.480168 1.6 0.579428 1.6 0.682927ZM1.3 0.682927C1.3 0.593244 1.31811 0.504439 1.35328 0.421582C1.38846 0.338726 1.44002 0.26344 1.50503 0.200025C1.57003 0.136609 1.64719 0.086305 1.73212 0.0519847C1.81705 0.0176644 1.90807 0 2 0C2.09193 0 2.18295 0.0176644 2.26788 0.0519847C2.35281 0.086305 2.42997 0.136609 2.49497 0.200025C2.55998 0.26344 2.61154 0.338726 2.64672 0.421582C2.68189 0.504439 2.7 0.593244 2.7 0.682927H3.85C3.88978 0.682927 3.92794 0.698345 3.95607 0.725789C3.9842 0.753234 4 0.790456 4 0.829268C4 0.86808 3.9842 0.905303 3.95607 0.932747C3.92794 0.960192 3.88978 0.97561 3.85 0.97561H3.586L3.352 3.33873C3.33405 3.5198 3.24761 3.68785 3.10954 3.81011C2.97146 3.93237 2.79166 4.00007 2.6052 4H1.3948C1.20837 4.00002 1.02862 3.9323 0.89059 3.81005C0.75256 3.68779 0.666147 3.51977 0.6482 3.33873L0.414 0.97561H0.15C0.110218 0.97561 0.0720644 0.960192 0.043934 0.932747C0.0158035 0.905303 0 0.86808 0 0.829268C0 0.790456 0.0158035 0.753234 0.043934 0.725789C0.0720644 0.698345 0.110218 0.682927 0.15 0.682927H1.3ZM1.7 1.60976C1.7 1.57094 1.6842 1.53372 1.65607 1.50628C1.62794 1.47883 1.58978 1.46341 1.55 1.46341C1.51022 1.46341 1.47206 1.47883 1.44393 1.50628C1.4158 1.53372 1.4 1.57094 1.4 1.60976V3.07317C1.4 3.11198 1.4158 3.14921 1.44393 3.17665C1.47206 3.20409 1.51022 3.21951 1.55 3.21951C1.58978 3.21951 1.62794 3.20409 1.65607 3.17665C1.6842 3.14921 1.7 3.11198 1.7 3.07317V1.60976ZM2.45 1.46341C2.48978 1.46341 2.52794 1.47883 2.55607 1.50628C2.5842 1.53372 2.6 1.57094 2.6 1.60976V3.07317C2.6 3.11198 2.5842 3.14921 2.55607 3.17665C2.52794 3.20409 2.48978 3.21951 2.45 3.21951C2.41022 3.21951 2.37206 3.20409 2.34393 3.17665C2.3158 3.14921 2.3 3.11198 2.3 3.07317V1.60976C2.3 1.57094 2.3158 1.53372 2.34393 1.50628C2.37206 1.47883 2.41022 1.46341 2.45 1.46341ZM0.9468 3.31063C0.957587 3.41925 1.00945 3.52005 1.09227 3.59339C1.1751 3.66672 1.28295 3.70734 1.3948 3.70732H2.6052C2.71705 3.70734 2.8249 3.66672 2.90773 3.59339C2.99055 3.52005 3.04241 3.41925 3.0532 3.31063L3.2848 0.97561H0.7152L0.9468 3.31063Z" fill="#D96D6D"/>
</svg>
